# xmcd
#
# Track frame offsets: 
#        150
#        17489
#        36294
#        52960
#        71040
#        89208
#        104810
#        123754
#        140265
#        158235
#        177962
#        195916
#
# Disc length: 2825 seconds
#
# Revision: 1
# Processed by: cddbd v1.5.2PL0 Copyright (c) Steve Scherf et al.
# Submitted via: ExactAudioCopy v0.90b4
#
DISCID=a20b070c
DTITLE=Tony Smith - One More Glass Of Wine
DYEAR=2011
DGENRE=Pop
TTITLE0=One More Glass Of Wine
TTITLE1=Sweet City Lady
TTITLE2=It Takes A Long Long Time
TTITLE3=A Vision In The Desert Sand
TTITLE4=Where Were You When I Needed You
TTITLE5=Rambling Man
TTITLE6=Warm Summer Nights
TTITLE7=Cold And Windy Day
TTITLE8=Fantasy Road
TTITLE9=You Can Count On Me
TTITLE10=Lost In The Sun
TTITLE11=You Take Me Down
EXTD=
EXTT0=
EXTT1=
EXTT2=
EXTT3=
EXTT4=
EXTT5=
EXTT6=
EXTT7=
EXTT8=
EXTT9=
EXTT10=
EXTT11=
PLAYORDER=
